User Type,Username,Date,Text
,sldscrl,2012-12-15T10:55Z,"Main:
General
Unique ID                                : 234720209746729541528585429815354440356 (0xB09577D226CAE10640ADDA2B387FBAA4)
Complete name                            : Trinity and Beyond - The Atomic Bomb Movie (1995) [1080p].mkv
Format                                   : Matroska
Format version                           : Version 2
File size                                : 13.3 GiB
Duration                                 : 1h 33mn
Overall bit rate mode                    : Variable
Overall bit rate                         : 20.3 Mbps
Encoded date                             : UTC 2012-04-05 13:09:51
Writing application                      : MakeMKV v1.7.2 win(x64-release)
Writing library                          : libmakemkv v1.7.2 (1.2.0/1.1.0) win(x64-release)

Video
ID                                       : 1
Format                                   : MPEG Video
Format version                           : Version 2
Format profile                           : Main@High
Format settings, BVOP                    : No
Format settings, Matrix                  : Default
Codec ID                                 : V_MPEG2
Codec ID/Info                            : MPEG 1 or 2 Video
Duration                                 : 1h 33mn
Bit rate mode                            : Variable
Bit rate                                 : 19.5 Mbps
Maximum bit rate                         : 25.0 Mbps
Width                                    : 1 920 pixels
Height                                   : 1 080 pixels
Display aspect ratio                     : 16:9
Frame rate                               : 23.976 fps
Color space                              : YUV
Chroma subsampling                       : 4:2:0
Bit depth                                : 8 bits
Scan type                                : Progressive
Compression mode                         : Lossy
Bits/(Pixel*Frame)                       : 0.392
Stream size                              : 12.8 GiB (96%)
Language                                 : English
Default                                  : Yes
Forced                                   : No

Audio
ID                                       : 2
Format                                   : AC-3
Format/Info                              : Audio Coding 3
Mode extension                           : CM (complete main)
Format settings, Endianness              : Big
Codec ID                                 : A_AC3
Duration                                 : 1h 33mn
Bit rate mode                            : Constant
Bit rate                                 : 448 Kbps
Channel(s)                               : 6 channels
Channel positions                        : Front: L C R, Side: L R, LFE
Sampling rate                            : 48.0 KHz
Bit depth                                : 16 bits
Compression mode                         : Lossy
Delay relative to video                  : -51ms
Stream size                              : 301 MiB (2%)
Title                                    : 3/2+1
Language                                 : English
Default                                  : Yes
Forced                                   : No

Menu
00:00:00.000                             : en:Chapter 00
00:05:00.000                             : en:Chapter 01
00:10:00.000                             : en:Chapter 02
00:15:00.000                             : en:Chapter 03
00:20:00.000                             : en:Chapter 04
00:25:00.000                             : en:Chapter 05
00:30:00.000                             : en:Chapter 06
00:35:00.000                             : en:Chapter 07
00:40:00.000                             : en:Chapter 08
00:45:00.000                             : en:Chapter 09
00:50:00.000                             : en:Chapter 10
00:55:00.000                             : en:Chapter 11
01:00:00.000                             : en:Chapter 12
01:05:00.000                             : en:Chapter 13
01:10:00.000                             : en:Chapter 14
01:15:00.000                             : en:Chapter 15"
